<?xml version="1.0" standalone="no"?>
<!DOCTYPE svg PUBLIC "-//W3C//DTD SVG 20010904//EN"
 "http://www.w3.org/TR/2001/REC-SVG-20010904/DTD/svg10.dtd">
<svg version="1.0" xmlns="http://www.w3.org/2000/svg"
 width="225.000000pt" height="225.000000pt" viewBox="0 0 225.000000 225.000000"
 preserveAspectRatio="xMidYMid meet">

<g transform="translate(0.000000,225.000000) scale(0.100000,-0.100000)"
fill="#000000" stroke="none">
<path d="M809 2073 l-90 -87 96 -96 c83 -83 100 -96 124 -92 73 10 150 -69
138 -143 -5 -30 2 -39 82 -119 82 -81 89 -86 129 -86 62 0 100 -24 124 -76 22
-51 18 -88 -14 -129 -41 -52 -104 -68 -158 -40 -48 25 -70 62 -70 119 0 51 -1
52 -80 131 l-80 80 0 -221 c0 -212 1 -222 21 -240 66 -59 63 -148 -7 -203 -40
-32 -85 -36 -130 -13 -93 48 -99 166 -12 230 16 12 18 34 18 231 l0 218 -41
43 c-38 40 -41 46 -37 92 l3 48 -93 93 -92 92 -251 -250 c-142 -142 -257 -265
-266 -284 -8 -18 -11 -45 -8 -60 4 -19 128 -149 388 -410 210 -210 389 -386
397 -391 22 -14 67 -12 98 4 47 25 769 758 774 786 10 60 -5 79 -400 473
l-388 387 -42 0 c-40 0 -48 -5 -133 -87z"/>
<path d="M1591 746 c-21 -26 -9 -79 22 -96 24 -13 30 -13 55 0 30 17 40 56 22
90 -13 24 -81 28 -99 6z"/>
<path d="M1818 658 c-10 -32 -21 -47 -45 -58 -25 -12 -33 -21 -33 -42 0 -23 4
-28 24 -28 24 0 24 0 28 -126 3 -120 4 -127 28 -146 21 -17 36 -19 97 -16 81
4 97 13 87 52 -6 24 -9 25 -43 20 -60 -10 -71 9 -71 122 l0 94 56 0 55 0 -3
33 c-3 31 -4 32 -55 35 l-53 3 0 50 c0 47 -1 49 -29 49 -25 0 -31 -5 -43 -42z"/>
<path d="M1244 576 c-75 -34 -100 -133 -49 -194 l24 -29 -23 -22 c-29 -27 -38
-64 -21 -89 11 -14 10 -21 -1 -37 -16 -22 -18 -59 -4 -85 25 -46 201 -60 277
-21 50 25 63 46 63 100 0 49 -24 77 -72 86 -72 12 -85 14 -126 14 -36 1 -43 4
-40 19 3 14 12 16 46 14 56 -5 106 13 137 49 27 33 33 85 15 120 -9 16 -7 19
12 20 13 1 26 1 31 0 4 0 7 13 7 29 0 29 -2 30 -42 30 -24 0 -79 2 -123 5 -57
4 -89 2 -111 -9z m131 -72 c10 -10 15 -29 13 -48 -6 -57 -93 -73 -117 -20 -12
27 -1 68 21 77 27 11 67 6 83 -9z m-21 -300 c87 -12 65 -64 -27 -64 -57 0 -87
13 -87 39 0 33 20 37 114 25z"/>
<path d="M1556 574 c-11 -27 -7 -39 17 -49 21 -10 22 -16 22 -120 0 -106 -1
-110 -22 -113 -17 -3 -23 -10 -23 -28 0 -24 1 -24 95 -24 93 0 95 0 95 24 0
15 -7 26 -20 29 -19 5 -20 14 -20 151 l0 146 -69 0 c-54 0 -70 -4 -75 -16z"/>
</g>
</svg>
